<svg width="370" height="370" viewBox="0 0 370 370" fill="none" xmlns="http://www.w3.org/2000/svg">
<circle cx="185" cy="185" r="185" fill="#BFC5D1"/>
<path d="M237.326 206.674C229.266 198.614 219.673 192.648 209.206 189.036C220.416 181.315 227.781 168.393 227.781 153.781C227.781 130.192 208.59 111 185 111C161.41 111 142.219 130.192 142.219 153.781C142.219 168.393 149.584 181.315 160.794 189.036C150.328 192.648 140.734 198.614 132.674 206.674C118.697 220.651 111 239.234 111 259H122.562C122.562 224.572 150.572 196.562 185 196.562C219.428 196.562 247.438 224.572 247.438 259H259C259 239.234 251.303 220.651 237.326 206.674ZM185 185C167.786 185 153.781 170.995 153.781 153.781C153.781 136.567 167.786 122.562 185 122.562C202.214 122.562 216.219 136.567 216.219 153.781C216.219 170.995 202.214 185 185 185Z" fill="white"/>
</svg>
