<?xml version="1.0" encoding="utf-8"?>
<!-- Svg Vector Icons : http://www.onlinewebfonts.com/icon -->
<!DOCTYPE svg PUBLIC "-//W3C//DTD SVG 1.1//EN" "http://www.w3.org/Graphics/SVG/1.1/DTD/svg11.dtd">
<svg version="1.1" xmlns="http://www.w3.org/2000/svg" xmlns:xlink="http://www.w3.org/1999/xlink" x="0px" y="0px" viewBox="0 0 1000 1000" enable-background="new 0 0 1000 1000" xml:space="preserve" fill="white">
<metadata> Svg Vector Icons : http://www.onlinewebfonts.com/icon </metadata>
<g><g transform="translate(0.000000,511.000000) scale(0.100000,-0.100000)"><path d="M5030.6,2875.2c-231-40.9-510.1-134.8-1039.5-356.1c-620.8-257.5-931.2-363.4-1306.6-447.6c-211.8-48.1-755.6-132.3-847-132.3c-4.8,0-7.2-620.8-7.2-1378.8V-820.9l101.1-28.9c125.1-36.1,293.6-130,601.6-329.7c404.3-262.3,589.5-341.7,967.3-406.7c276.7-48.1,842.2-45.7,1277.8,2.4c199.7,21.7,697.8,43.3,1215.2,55.3c818.1,14.5,885.5,19.2,986.6,65c435.5,199.7,515,697.8,168.4,1073.2C6869-82.1,6484,47.8,5656.2,120c-637.7,57.8-765.2,105.9-820.6,310.4c-57.7,214.2,81.8,570.3,324.8,830.2c89,96.3,197.3,156.4,238.2,134.8c16.8-9.6,91.4-65,166-122.7c170.8-129.9,399.4-240.6,579.9-276.7c178.1-38.5,312.8-2.4,481.3,122.7c187.7,139.6,430.7,252.7,726.7,334.5c392.2,108.3,397,110.7,397,197.3c0,110.7-151.6,257.5-515,500.5c-558.2,375.4-950.5,572.7-1349.9,678.6C5663.4,2887.2,5232.7,2911.3,5030.6,2875.2z"/><path d="M518.7,2314.5c-12-7.2-52.9-16.8-91.4-24.1c-36.1-9.6-108.3-52.9-161.2-101.1C92.8,2033,95.2,2057.1,102.4,442.4l7.2-1431.8l72.2-115.5c48.1-77,108.3-134.8,178.1-173.3c98.7-50.5,134.8-55.3,507.7-55.3c373,0,409.1,4.8,507.7,55.3c69.8,38.5,129.9,96.3,178.1,173.3l72.2,115.5l7.2,1422.1c4.8,1015.5,0,1451-21.7,1520.8c-14.4,55.3-57.7,139.6-98.7,187.7c-125.1,151.6-180.5,168.4-596.8,175.7C711.2,2319.3,533.2,2319.3,518.7,2314.5z"/><path d="M7773.7,1248.5c-423.5-45.7-837.4-223.8-1143-490.9c-103.5-91.4-324.9-351.3-324.9-380.2c0-12,67.4-65,151.6-120.3l149.2-98.7l45.7,67.4c115.5,166,365.7,370.6,577.5,476.5c351.3,170.8,644.9,214.2,1017.9,142c866.3-166,1431.8-1027.5,1246.5-1898.6c-93.8-442.8-428.3-871.1-830.2-1068.4c-113.1-55.3-269.5-117.9-348.9-137.1c-182.9-45.7-563.1-45.7-745.9,0c-334.5,84.2-714.7,334.5-902.4,591.9l-62.5,89l-163.7-103.4l-161.2-101.1l93.8-117.9c279.2-353.7,630.5-589.6,1056.4-712.3c269.5-79.4,755.6-77,1027.5,0c685.8,197.4,1205.6,724.3,1388.4,1412.5c67.4,247.8,72.2,693,14.5,931.2c-211.8,859.1-931.3,1463-1809.6,1516C7944.6,1253.4,7819.5,1255.8,7773.7,1248.5z"/><path d="M7845.9,447.2c-31.3-31.3-48.1-79.4-48.1-139.6c0-79.4-12-96.3-96.3-149.2C7533.1,55,7436.9-123.1,7436.9-327.6c0-257.5,122.7-394.6,543.8-604c245.4-122.7,281.5-156.4,281.5-259.9c0-110.7-96.3-194.9-243-209.4c-103.5-9.6-139.6,0-252.7,65c-163.6,93.8-219,93.8-308,4.8c-139.6-142-74.6-288.8,185.3-411.5c137.2-67.4,154-81.8,154-146.8c0-113.1,74.6-166,228.6-166c161.2,0,228.6,52.9,228.6,180.5c0,72.2,12,89,79.4,117.9c216.6,89,360.9,320,360.9,579.9c0,279.1-117.9,413.9-529.4,616c-276.7,134.7-344.1,202.1-300.8,300.8c55.3,117.9,204.5,125.1,365.8,16.8c117.9-79.4,221.4-72.2,298.4,19.3c113.1,132.3,60.2,269.5-142,385C8267,228.3,8255,242.7,8255,317.3c0,125.1-67.4,178.1-228.6,178.1C7925.3,495.4,7882,483.3,7845.9,447.2z"/></g></g>
</svg>