<?xml version="1.0" encoding="iso-8859-1"?>
<!-- Generator: Adobe Illustrator 16.0.0, SVG Export Plug-In . SVG Version: 6.00 Build 0)  -->
<!DOCTYPE svg PUBLIC "-//W3C//DTD SVG 1.1//EN" "http://www.w3.org/Graphics/SVG/1.1/DTD/svg11.dtd">
<svg version="1.1" id="Capa_1" xmlns="http://www.w3.org/2000/svg" xmlns:xlink="http://www.w3.org/1999/xlink" x="0px" y="0px"
	 width="124.029px" height="124.029px" viewBox="0 0 124.029 124.029" style="enable-background:new 0 0 124.029 124.029;"
	 xml:space="preserve" fill="orangeRed">
<g>
	<path d="M102.093,71.967V55.551c0-3.795-3.076-6.871-6.871-6.871h-0.889V30.068C94.333,13.489,80.845,0,64.264,0h-4.498
		c-16.581,0-30.07,13.489-30.07,30.068v18.613h-0.888c-3.795,0-6.871,3.076-6.871,6.871v61.606c0,3.795,3.076,6.871,6.871,6.871
		h66.414c3.795,0,6.871-3.076,6.871-6.871V99.164h-23.59v-7.559h23.59V79.526h-23.59v-7.56H102.093z M54.169,107.026v7.555h-8.624
		v-6.963c-4.155-0.333-8.313-1.571-10.872-3.28l-0.854-0.568l2.7-9.396l1.559,0.921c3.156,1.86,6.934,2.93,10.36,2.93
		c3.718,0,6.122-1.651,6.122-4.207c0-1.748-0.827-3.666-6.816-5.853c-6.524-2.36-13.201-5.875-13.201-14.021
		c0-6.562,4.349-11.535,11.428-13.208v-7.214h8.622v6.671c3.348,0.251,6.243,1.029,9.021,2.419l1.049,0.526l-2.704,9.207
		l-1.874-0.861c-1.681-0.785-4.5-2.099-8.668-2.099c-3.341,0-5.337,1.33-5.337,3.565c0,1.945,1.871,3.32,7.707,5.652
		c8.665,3.252,12.379,7.57,12.379,14.433C66.165,100.081,61.496,105.389,54.169,107.026z M40.743,48.681V30.068
		c0-10.488,8.533-19.023,19.023-19.023h4.498c10.489,0,19.022,8.535,19.022,19.023v18.613H40.743z"/>
</g>
<g>
</g>
<g>
</g>
<g>
</g>
<g>
</g>
<g>
</g>
<g>
</g>
<g>
</g>
<g>
</g>
<g>
</g>
<g>
</g>
<g>
</g>
<g>
</g>
<g>
</g>
<g>
</g>
<g>
</g>
</svg>
