<?xml version="1.0" encoding="iso-8859-1"?>
<!-- Generator: Adobe Illustrator 19.0.0, SVG Export Plug-In . SVG Version: 6.00 Build 0)  -->
<svg version="1.1" id="Capa_1" xmlns="http://www.w3.org/2000/svg" xmlns:xlink="http://www.w3.org/1999/xlink" x="0px" y="0px"
	 viewBox="0 0 489.3 489.3" style="enable-background:new 0 0 489.3 489.3;" xml:space="preserve" fill="yellowGreen">
<g>
	<path d="M486.3,215.662l-293.5-169.4c-4-2.3-10.6-2.3-14.6,0l-175,101.7c-4,2.3-4,6.1,0,8.5l293.4,169.4c4.1,2.4,10.6,2.3,14.6,0
		l175-101.7C490.3,221.862,490.3,218.062,486.3,215.662z M333.3,286.662c-1.6-1.6-3.6-3-5.9-4.3c-14.9-8.6-39-8.6-53.9,0
		c-1.1,0.7-2.1,1.3-3.1,2.1l-197.7-114.2c1.9-0.8,3.7-1.6,5.4-2.6c14.8-8.6,14.7-22.6-0.2-31.2c-1.6-0.9-3.4-1.8-5.2-2.5l81.5-47.4
		c1.3,1,2.7,2.1,4.3,3c14.9,8.6,39.1,8.6,53.9,0c1.7-1,3.2-2,4.5-3.1l198.3,114.5c-2.6,0.9-5.1,2-7.4,3.3
		c-14.8,8.6-14.7,22.6,0.2,31.2c2.3,1.3,4.9,2.4,7.6,3.4L333.3,286.662z M357.2,243.462l-12.9,7.5c-2,1.1-5.2,1.2-7.2,0l-22.7-13.1
		c-2-1.2-2-3,0-4.2l12.9-7.5c2-1.1,5.2-1.2,7.2,0l22.7,13.1C359.2,240.462,359.2,242.362,357.2,243.462z M175.2,138.362l-12.9,7.5
		c-2,1.1-5.2,1.2-7.2,0l-22.7-13.1c-2-1.2-2-3,0-4.2l12.9-7.5c2-1.1,5.2-1.2,7.2,0l22.7,13.1
		C177.2,135.362,177.1,137.262,175.2,138.362z M466.5,267.762l22.8,13.2l-183.4,106.5l-6-3.4l-16.9-9.7L0,210.862l22.7-13.2
		l283,163.5L466.5,267.762z M283.4,431.662L0.1,267.762l22.6-13.1l283.4,163.8l160-93l22.8,13.2l-182.7,106.1l-5.9-3.4
		L283.4,431.662z M303.1,152.262c-32.3-18.6-84.5-18.6-116.7,0.1s-32.1,48.9,0.2,67.6c32.2,18.6,84.4,18.6,116.6-0.1
		C335.3,201.062,335.3,170.862,303.1,152.262z M292.3,183.662c-2.5,0.6-5.1,1.2-7.6,1.8c-1.8,0.4-3,0.3-4.1-0.4
		c-0.3-0.2-0.5-0.3-0.8-0.6c-1.7-1.6-3.2-3.3-5-4.8c-1.6-1.4-3.4-2.7-5.4-3.9c-2.7-1.5-5.7-2.8-9.4-3.7c-5.5-1.4-10.9-1-16.3,0.2
		l-0.2,0.1l13.7,7.9c1.1,0.7,1.1,1.7,0,2.4l-4.5,2.6c-1.1,0.7-2.9,0.7-4.1,0l-15.7-9.1c-1.2,0.7-2.4,1.4-3.7,2.1l15.7,9.1
		c1.1,0.7,1.1,1.7,0,2.4l-4.5,2.6c-1.1,0.7-2.9,0.7-4.1,0l-14.3-8.3c-3.2,3.9-4.2,7.7-0.6,11.7c1.5,1.7,3.5,3.2,5.8,4.5
		c2,1.2,4.2,2.2,6.6,3.1c2.7,1,5.5,1.9,8.2,2.8c0.5,0.2,0.8,0.3,1.1,0.5c1.1,0.6,1.3,1.4,0.6,2.4c-0.9,1.5-2,3-3.1,4.5
		c-0.9,1.3-2.7,1.8-5.2,1.3c-2.5-0.6-5-1.2-7.4-2c-4.4-1.4-8.4-3.2-11.9-5.2c-3.6-2.1-6.7-4.5-9.2-7.3c-5.8-6.5-5.7-13.2-0.9-19.9
		c0.9-1.3,2.2-2.5,3.3-3.8l-6.7-3.9c-1.1-0.7-1.1-1.7,0-2.4l4.5-2.6c1.1-0.7,2.9-0.7,4.1,0l5.5,3.2c1.2-0.7,2.4-1.4,3.7-2.1
		l-5.5-3.2c-1.1-0.7-1.1-1.7,0-2.4l4.5-2.6c1.1-0.7,2.9-0.7,4.1,0l7.1,4.1l0.9-0.3c7.9-2.4,16.3-3.5,25.3-2.9
		c7,0.5,13.3,2.2,19.1,4.6c2.3,0.9,4.4,2,6.3,3.1c5,2.9,8.9,6.3,11.8,10.1l0.6,1.1C295.4,182.162,294.6,183.162,292.3,183.662z"/>
</g>
<g>
</g>
<g>
</g>
<g>
</g>
<g>
</g>
<g>
</g>
<g>
</g>
<g>
</g>
<g>
</g>
<g>
</g>
<g>
</g>
<g>
</g>
<g>
</g>
<g>
</g>
<g>
</g>
<g>
</g>
</svg>
